#!OML:ASF H:\Pregnant\Project 1\Capture day 1\Session 1\femalepreg.ASF
:FULLY-SPECIFIED
:DEGREES
1001
root 10.8762 7.75704 20.9709 -109.74 7.45443 183.643
lowerback 9.86963 1.95134 -9.09044
upperback 0.607289 1.74373 -7.09087
thorax -4.93891 1.18936 -2.63769
lowerneck -24.1279 7.28637 6.5481
upperneck 38.673 2.15552 5.81608
head 18.963 2.10745 1.94999
rclavicle 6.55989e-014 4.37326e-015
rhumerus 40.528 1.45494 -82.0477
rradius 25.7252
rwrist 13.8467
rhand -65.6772 320.135
rfingers 7.12502
rthumb -37.5379 -65.7885
lclavicle 6.55989e-014 4.37326e-015
lhumerus 23.8045 -14.9761 66.6304
lradius 32.2605
lwrist 6.07001
lhand -48.8742 -603.403
lfingers 7.12502
lthumb -21.5082 -87.7713
rfemur -67.6449 18.4796 9.1228
rtibia 93.4902
rfoot 34.8694 1.34925
rtoes 43.6825
lfemur -103.46 3.84811 -14.554
ltibia 119.53
lfoot -315.297 -6.52547
ltoes -51.0609
1002
root 10.8746 7.76024 20.9487 -109.744 7.47833 183.565
lowerback 9.85137 1.92543 -9.11807
upperback 0.664141 1.72011 -7.08909
thorax -4.86793 1.17776 -2.61359
lowerneck -23.9932 7.36874 6.55131
upperneck 38.6431 2.34675 5.73214
head 18.9063 2.17263 1.94724
rclavicle -1.43125e-014 2.39536e-014
rhumerus 40.5585 1.69983 -81.8094
rradius 25.7029
rwrist 13.6922
rhand -65.7165 318.885
rfingers 7.12502
rthumb -37.5752 -67.0286
lclavicle -1.43125e-014 2.39536e-014
lhumerus 23.7284 -14.8417 66.7589
lradius 32.2535
lwrist 5.9652
lhand -48.8813 -603.309
lfingers 7.12502
lthumb -21.5151 -87.8657
rfemur -67.4454 18.4301 9.0099
rtibia 93.243
rfoot 34.8307 1.5836
rtoes 43.2625
lfemur -103.188 3.71928 -14.6596
ltibia 119.532
lfoot -315.15 -6.56181
ltoes -51.0339
1003
root 10.8725 7.76333 20.9269 -109.755 7.47499 183.48
lowerback 9.84256 1.89456 -9.11932
upperback 0.724891 1.69099 -7.07326
thorax -4.79776 1.16236 -2.58847
lowerneck -23.8473 7.44572 6.55083
upperneck 38.6078 2.54017 5.63516
head 18.8437 2.23657 1.93857
rclavicle -2.8625e-014 4.60187e-014
rhumerus 40.5871 1.93103 -81.5909
rradius 25.6899
rwrist 13.5681
rhand -65.7519 317.659
rfingers 7.12502
rthumb -37.6086 -68.2455
lclavicle -2.8625e-014 4.60187e-014
lhumerus 23.6473 -14.7079 66.8938
lradius 32.2491
lwrist 5.87143
lhand -48.8887 -603.217
lfingers 7.12502
lthumb -21.5221 -87.9589
rfemur -67.2302 18.37 8.91619
rtibia 92.9852
rfoot 34.7985 1.83331
rtoes 42.7993
lfemur -102.909 3.56736 -14.7277
ltibia 119.479
lfoot -314.834 -6.50233
ltoes -50.966
1004
root 10.8698 7.76627 20.9055 -109.78 7.44603 183.389
lowerback 9.85185 1.85861 -9.08962
upperback 0.790547 1.65581 -7.0469
thorax -4.73196 1.14302 -2.56892
lowerneck -23.6891 7.51889 6.55118
upperneck 38.5662 2.73708 5.52306
head 18.7746 2.30017 1.92249
rclavicle -5.1684e-015 2.60408e-014
rhumerus 40.6111 2.14756 -81.3988
rradius 25.6867
rwrist 13.4778
rhand -65.7841 316.447
rfingers 7.12502
rthumb -37.639 -69.4497
lclavicle -5.1684e-015 2.60408e-014
lhumerus 23.5608 -14.5821 67.0241
lradius 32.2489
lwrist 5.79569
lhand -48.8961 -603.123
lfingers 7.12502
lthumb -21.5292 -88.0535
rfemur -66.9899 18.3023 8.84343
rtibia 92.7166
rfoot 34.7714 2.09286
rtoes 42.2977
lfemur -102.612 3.39158 -14.7606
ltibia 119.369
lfoot -314.415 -6.37476
ltoes -50.8521
1005
root 10.8665 7.76903 20.8843 -109.827 7.39536 183.293
lowerback 9.88837 1.81785 -9.02624
upperback 0.861864 1.61442 -7.01538
thorax -4.67463 1.11995 -2.56258
lowerneck -23.5187 7.59045 6.55741
upperneck 38.5185 2.93753 5.3966
head 18.6999 2.36424 1.89859
rclavicle 1.27222e-014 2.52457e-014
rhumerus 40.6271 2.34772 -81.2407
rradius 25.6935
rwrist 13.4229
rhand -65.8149 315.24
rfingers 7.12502
rthumb -37.6681 -70.6491
lclavicle 1.27222e-014 2.52457e-014
lhumerus 23.4686 -14.4719 67.1389
lradius 32.2547
lwrist 5.74179
lhand -48.9034 -603.025
lfingers 7.12502
lthumb -21.5362 -88.1528
rfemur -66.7142 18.2314 8.79165
rtibia 92.4368
rfoot 34.7475 2.35746
rtoes 41.763
lfemur -102.283 3.19224 -14.7654
ltibia 119.201
lfoot -313.973 -6.21166
ltoes -50.6857
1006
root 10.8626 7.77161 20.8632 -109.904 7.32857 183.194
lowerback 9.96163 1.77317 -8.92891
upperback 0.939725 1.56737 -6.98476
thorax -4.63005 1.0938 -2.57658
lowerneck -23.3371 7.66246 6.57474
upperneck 38.4653 3.14037 5.258
head 18.6206 2.42935 1.86692
rclavicle -1.15295e-014 -3.27995e-015
rhumerus 40.632 2.5283 -81.1245
rradius 25.7101
rwrist 13.4051
rhand -65.846 314.037
rfingers 7.12502
rthumb -37.6975 -71.8438
lclavicle -1.15295e-014 -3.27995e-015
lhumerus 23.3711 -14.3832 67.2296
lradius 32.2664
lwrist 5.7094
lhand -48.9105 -602.919
lfingers 7.12502
lthumb -21.5431 -88.2593
rfemur -66.3927 18.1631 8.75942
rtibia 92.1455
rfoot 34.7241 2.62127
rtoes 41.2029
lfemur -101.904 2.97107 -14.7517
ltibia 118.978
lfoot -313.585 -6.04305
ltoes -50.4609
1007
root 10.8582 7.77404 20.8421 -110.014 7.25157 183.095
lowerback 10.0741 1.72701 -8.80038
upperback 1.02378 1.51765 -6.95984
thorax -4.60002 1.06634 -2.61504
lowerneck -23.1448 7.73506 6.60808
upperneck 38.4063 3.34204 5.10968
head 18.5371 2.49513 1.82704
rclavicle -2.78299e-015 2.96189e-014
rhumerus 40.6228 2.68485 -81.0516
rradius 25.7366
rwrist 13.4225
rhand -65.8792 312.84
rfingers 7.12502
rthumb -37.7288 -73.0325
lclavicle -2.78299e-015 2.96189e-014
lhumerus 23.2669 -14.3198 67.2968
lradius 32.2849
lwrist 5.69113
lhand -48.9173 -602.805
lfingers 7.12502
lthumb -21.5496 -88.3738
rfemur -66.0228 18.1026 8.74318
rtibia 91.8427
rfoot 34.6997 2.87983
rtoes 40.6254
lfemur -101.467 2.73313 -14.7268
ltibia 118.705
lfoot -313.303 -5.88837
ltoes -50.1864
1008
root 10.8533 7.77638 20.8209 -110.151 7.17027 182.998
lowerback 10.2185 1.68276 -8.64592
upperback 1.11199 1.47022 -6.94409
thorax -4.58287 1.04015 -2.67923
lowerneck -22.9417 7.80657 6.66163
upperneck 38.3408 3.53665 4.95434
head 18.4496 2.56017 1.77825
rclavicle -7.83212e-014 3.43897e-014
rhumerus 40.5969 2.81139 -81.017
rradius 25.7719
rwrist 13.4693
rhand -65.9159 311.668
rfingers 7.12502
rthumb -37.7635 -74.195
lclavicle -7.83212e-014 3.43897e-014
lhumerus 23.1537 -14.284 67.3496
lradius 32.3103
lwrist 5.67456
lhand -48.9233 -602.684
lfingers 7.12502
lthumb -21.5554 -88.4952
rfemur -65.6131 18.052 8.73627
rtibia 91.5299
rfoot 34.675 3.13043
rtoes 40.0384
lfemur -100.981 2.48617 -14.6948
ltibia 118.393
lfoot -313.135 -5.75541
ltoes -49.8819
1009
root 10.8479 7.77864 20.7997 -110.3 7.08942 182.904
lowerback 10.3773 1.64445 -8.47293
upperback 1.20082 1.43145 -6.93863
thorax -4.57281 1.0183 -2.76655
lowerneck -22.7273 7.87313 6.73857
upperneck 38.2667 3.71689 4.79324
head 18.357 2.62219 1.71893
rclavicle 9.22361e-014 -1.08735e-013
rhumerus 40.554 2.90202 -81.0068
rradius 25.8149
rwrist 13.5351
rhand -65.9561 310.545
rfingers 7.12502
rthumb -37.8015 -75.3081
lclavicle 9.22361e-014 -1.08735e-013
lhumerus 23.0292 -14.2767 67.4044
lradius 32.3422
lwrist 5.64443
lhand -48.9283 -602.559
lfingers 7.12502
lthumb -21.5601 -88.6215
rfemur -65.1842 18.0096 8.72986
rtibia 91.2109
rfoot 34.6518 3.37248
rtoes 39.4501
lfemur -100.471 2.23944 -14.6545
ltibia 118.059
lfoot -313.054 -5.6411
ltoes -49.5807
1010
root 10.8419 7.78079 20.7784 -110.441 7.01286 182.814
lowerback 10.5275 1.61547 -8.29008
upperback 1.28586 1.40704 -6.94239
thorax -4.56196 1.00341 -2.87112
lowerneck -22.5004 7.93014 6.83907
upperneck 38.181 3.87632 4.62721
head 18.2574 2.67878 1.64795
rclavicle 1.98785e-014 -2.51463e-014
rhumerus 40.4952 2.95334 -81.0032
rradius 25.8637
rwrist 13.6072
rhand -65.9995 309.5
rfingers 7.12502
rthumb -37.8426 -76.3423
lclavicle 1.98785e-014 -2.51463e-014
lhumerus 22.8917 -14.2982 67.478
lradius 32.3804
lwrist 5.59009
lhand -48.9321 -602.429
lfingers 7.12502
lthumb -21.5638 -88.7512
rfemur -64.7626 17.9697 8.71389
rtibia 90.8908
rfoot 34.6322 3.60523
rtoes 38.8736
lfemur -99.974 2.00089 -14.6017
ltibia 117.72
lfoot -313.004 -5.53479
ltoes -49.3183
